<svg xmlns="http://www.w3.org/2000/svg" viewBox="0 0 33 33"><defs><style>.cls-1{fill:none;stroke:#fff;stroke-miterlimit:10;stroke-width:2px;}.cls-2{fill:#fff;fill-rule:evenodd;}</style></defs><title>Asset 2</title><g id="Layer_2" data-name="Layer 2"><g id="Layer_1-2" data-name="Layer 1"><rect class="cls-1" x="1" y="1" width="31" height="31"/><path class="cls-2" d="M21.5,27.43H11A5.42,5.42,0,0,1,5.57,22V11.5A5.42,5.42,0,0,1,11,6.08H21.5a5.42,5.42,0,0,1,5.42,5.42V22A5.42,5.42,0,0,1,21.5,27.43Zm.31-19.32H11.19a3.08,3.08,0,0,0-3.08,3.08V21.81a3.08,3.08,0,0,0,3.08,3.08H21.81a3.08,3.08,0,0,0,3.08-3.08V11.19A3.08,3.08,0,0,0,21.81,8.11Z"/><path class="cls-2" d="M22.08,12.12a1.31,1.31,0,1,1,1.3-1.31A1.31,1.31,0,0,1,22.08,12.12Z"/><path class="cls-2" d="M16.37,22A5.53,5.53,0,1,1,21.9,16.5,5.54,5.54,0,0,1,16.37,22Zm0-8.72a3.19,3.19,0,1,0,3.19,3.19A3.19,3.19,0,0,0,16.37,13.31Z"/></g></g></svg>