<svg xmlns="http://www.w3.org/2000/svg" viewBox="0 0 288.84 353.91"><title>Asset 3</title><g id="Layer_2" data-name="Layer 2"><g id="Layer_1-2" data-name="Layer 1"><path d="M133.32,118.25l1.08,2.32a6,6,0,0,0-4.18.21,4.94,4.94,0,0,0-2.7,3,5.32,5.32,0,0,0,.25,4.14,5.2,5.2,0,0,0,3,2.8,5,5,0,0,0,4-.17,4.46,4.46,0,0,0,1.6-1.15,5.69,5.69,0,0,0,.62-.84,10.9,10.9,0,0,0,.6-1.12l1.09,2.37a7.76,7.76,0,0,1-3.1,2.58,7.32,7.32,0,0,1-9.79-3.54,7.36,7.36,0,0,1-.41-5.18,7.23,7.23,0,0,1,4.11-4.8,7.37,7.37,0,0,1,3.82-.63Z"/><path d="M165.3,119a7.21,7.21,0,0,1,4.14,4.8A7.41,7.41,0,0,1,169,129a7.31,7.31,0,0,1-9.78,3.54,7.75,7.75,0,0,1-3.11-2.59l1.1-2.36a11.79,11.79,0,0,0,.59,1.11,5.69,5.69,0,0,0,.62.84,4.61,4.61,0,0,0,1.61,1.16,5,5,0,0,0,4,.16,5.23,5.23,0,0,0,3-2.8,5.36,5.36,0,0,0,.24-4.14,4.92,4.92,0,0,0-2.7-3,6,6,0,0,0-4.17-.21l1.08-2.32a7.36,7.36,0,0,1,3.79.63Z"/><path d="M110.48,31.36,97,52.47l-3.18-2,13.47-21.12Z"/><path d="M99.17,28,88,50.41l-3.39-1.68L95.78,26.3Z"/><path d="M98,41.29,89.34,64.8l-3.55-1.3L94.45,40Z"/><path d="M98,54.76,89.34,78.27,85.79,77l8.66-23.51Z"/><path d="M87.61,51.34l-7.3,24-3.62-1.1,7.3-24Z"/><path d="M80.78,76.87l-4.18,24.7-3.73-.63,4.18-24.7Z"/><path d="M76.83,103.93l-4.19,24.69L68.91,128,73.1,103.3Z"/><path d="M87,66.59l-4.18,24.7-3.73-.63L83.24,66Z"/><path d="M83.18,93.74l-1.89,25-3.77-.29,1.89-25Z"/><path d="M89.79,80.68l-1.89,25-3.77-.28,1.89-25Z"/><path d="M88.63,106.87l-1.9,25L83,131.56l1.9-25Z"/><path d="M214.69,64.13l4.92,24.56-3.71.75L211,64.87Z"/><path d="M221,112.52l2.11,25-3.77.31-2.11-25Z"/><path d="M190,177.67l-.56,25.05-3.78-.09.56-25Z"/><path d="M185.18,193.49,176.42,217l-3.55-1.33,8.77-23.46Z"/><path d="M184.25,180.06,181.57,205l-3.76-.4,2.68-24.91Z"/><path d="M187.45,204.62l-8.76,23.47-3.56-1.32,8.79-23.47Z"/><path d="M207.64,200l-8.77,23.47-3.54-1.32,8.76-23.47Z"/><path d="M202.4,229l-8.8,23.47-3.53-1.33,8.76-23.46Z"/><path d="M212.58,202.9l-8.79,23.46L200.25,225,209,201.58Z"/><path d="M214.33,211.86l-3.05,24.87-3.76-.46,3.06-24.87Z"/><path d="M220.32,237.94l-3,24.87-3.75-.46,3-24.87Z"/><path d="M224.11,254.18,221.06,279l-3.75-.46,3.05-24.86Z"/><path d="M216.51,265.26l-3.06,24.87-3.75-.47,3.05-24.86Z"/><path d="M200,267l3.16,24.83-3.75.48-3.16-24.83Z"/><path d="M207.45,269.27l3.15,24.83-3.74.47-3.17-24.85Z"/><path d="M213.66,165.42l-2.75,24.9-3.76-.42,2.76-24.9Z"/><path d="M217.7,131l.72,25-3.78.11-.72-25Z"/><path d="M223.92,138.6l2.22,25-3.77.33-2.21-24.94Z"/><path d="M217.51,158.15l2.21,24.95-3.77.33-2.21-25Z"/><path d="M224.78,183.14V208h-4.32V183.14Z"/><path d="M228.26,163.86l2.73,24.9-3.76.41-2.73-24.89Z"/><path d="M235.85,205.66l-1.2,25-3.78-.18,1.2-25Z"/><path d="M230.23,193l-1.2,25-3.77-.18,1.2-25Z"/><path d="M230,221.87l-4.71,24.6-3.71-.71,4.72-24.59Z"/><path d="M234.5,233.3l-5.91,24.34-3.67-.89,5.9-24.35Z"/><path d="M228.6,259.33l-1.93,25L222.9,284l1.93-25Z"/><path d="M174.34,270.1l2.21,24.95-3.77.34-2.21-24.95Z"/><path d="M196.11,282.74l2.21,24.95-3.76.34-2.21-24.95Z"/><path d="M179.81,270.75,182,295.7l-3.77.33L176,271.08Z"/><path d="M186.45,280,188.67,305l-3.77.33-2.21-25Z"/><path d="M175.34,218.09l-7.71,23.84L164,240.77l7.71-23.84Z"/><path d="M208.75,162.63,206,187.55l-3.75-.41L205,162.21Z"/><path d="M199.5,173.07,196.74,198l-3.76-.41,2.76-24.91Z"/><path d="M218.57,182.82l-2.77,24.9-3.75-.41,2.75-24.9Z"/><path d="M224.62,211.26l-2.76,24.91-3.76-.41,2.76-24.93Z"/><path d="M210.78,240.74,208,265.65l-3.75-.41L207,240.31Z"/><path d="M194.42,257l-2.74,24.9-3.76-.42,2.73-24.89Z"/><path d="M187.54,250.93l-2.75,24.9-3.76-.41,2.76-24.91Z"/><path d="M204.74,239.14,202,264l-3.76-.42L201,238.73Z"/><path d="M195.9,224.21l-8.79,23.47-3.54-1.32,8.76-23.47Z"/><path d="M178.23,230l-8.76,23.46-3.55-1.32,8.77-23.47Z"/><path d="M187.35,213.61l-8.77,23.46,4.44,1.66,8.76-23.47Z"/><path d="M202,188.85l-8.76,23.46,4.43,1.66,8.77-23.47Z"/><path d="M182.93,245.14l-8.76,23.47-3.54-1.32,8.76-23.47Z"/><path d="M167,243.79l-2.87,24.88-3.76-.43,2.88-24.89Z"/><path d="M212.58,136.05l-.56,25-3.78-.08.56-25Z"/><path d="M213.1,109l-.57,25-3.78-.08.57-25Z"/><path d="M213.84,81.73l-.57,25-3.78-.09.57-25Z"/><path d="M219.09,86.7l-.56,25-3.78-.08.56-25Z"/><path d="M197.65,28.82,208.71,51.3,205.32,53l-11-22.48Z"/><path d="M207.71,53.22l5.18,24.5-3.7.79L204,54Z"/><path d="M208.58,121.61l-.34,24.81h-4l.35-24.83Z"/><path d="M208.58,97.88l-.34,24.79-4,0,.35-24.79Z"/><path d="M208,75.11l.57,25-3.78.08-.57-25Z"/><path d="M81.89,120.79l-1.89,25-3.77-.29,1.89-25Z"/><path d="M73.16,130.38l-1.89,25-3.77-.29,1.89-25Z"/><path d="M68.66,157l-4.25,24.68-3.73-.64,4.25-24.69Z"/><path d="M88.61,159.34l-.71,25-3.78-.11.71-25Z"/><path d="M94.14,167.52l-.73,25-3.78-.11.71-25Z"/><path d="M99.34,174.07l-.7,25-3.79-.1.71-25Z"/><path d="M104.41,183.59l-.71,25-3.78-.1.73-25Z"/><path d="M108.63,188.18l6.73,24.13-3.62,1L105,189.21Z"/><path d="M108.06,209.89,114.78,234l-3.64,1-6.73-24.13Z"/><path d="M117.93,214.74l6.73,24.14-3.62,1-6.73-24.13Z"/><path d="M115.68,228.45l6.72,24.14-3.62,1L112,229.45Z"/><path d="M111.51,233.09l6.73,24.14-3.62,1-6.73-24.16Z"/><path d="M109.26,180.5,128.16,197l-2.48,2.85-18.9-16.44Z"/><path d="M98.21,200.86l-.72,25-3.78-.1.74-25.05Z"/><path d="M97.1,229.28l-.71,25-3.78-.1.71-25.05Z"/><path d="M96.08,257.7l-.71,25-3.78-.1.71-25.05Z"/><path d="M83,245.78l-.71,25-3.78-.11.72-25Z"/><path d="M77.9,233.2l-.72,25-3.77-.1.71-25Z"/><path d="M71.85,229.53l-.71,25.05-3.78-.11.71-25Z"/><path d="M65.17,231.17l-.72,25-3.78-.11.71-25Z"/><path d="M73.15,258.21l-.71,25-3.78-.11.71-25Z"/><path d="M65.79,258.35l-.71,25-3.78-.11.71-25Z"/><path d="M58.43,241.14l-.71,25-3.78-.11.72-25Z"/><path d="M91.56,222.82l-.73,25-3.78-.11.72-25Z"/><path d="M89.22,252.43l-.72,25-3.78-.1.72-25Z"/><path d="M104.41,212.71l-.71,25-3.78-.11.73-25Z"/><path d="M105.86,241.14l-.71,25-3.78-.11.72-25Z"/><path d="M91.9,195.17l-.72,25-3.77-.11.71-25Z"/><path d="M70.91,174.07l-.72,25-3.78-.1.72-25Z"/><path d="M78.48,174.07l-.72,25L74,199l.7-25Z"/><path d="M69.62,200.86l-.71,25-3.78-.1.71-25.05Z"/><path d="M77.9,202.86l-.7,25-3.78-.11.71-25Z"/><path d="M84.9,217l-.71,25-3.78-.1.71-25.05Z"/><path d="M62.93,182.83l-.72,25-3.78-.1.72-25Z"/><path d="M60.68,211.58l-.71,25-3.78-.1.71-25.05Z"/><path d="M86.22,188.15l-.72,25-3.78-.11.72-25Z"/><path d="M99.91,168.67l16.28,19-2.87,2.45L97,171.12Z"/><path d="M87.1,133.08l.57,25-3.78.09-.57-25Z"/><path d="M82.24,147.55l-.33,24.79-4-.05.33-24.79Z"/><path d="M77.52,147.68l-3.2,24.83L70.57,172l3.19-24.81Z"/><path d="M166.79,2.57,177,11.46a14.28,14.28,0,0,1,2.52,2.63,5.55,5.55,0,0,1,1,2.37,5.26,5.26,0,0,1-1.35,4.4A7.07,7.07,0,0,1,176,23l-1-2.94a4,4,0,0,0,2-1.12,2,2,0,0,0,.47-2.19A8.72,8.72,0,0,0,175,13.86L164.71,5Z"/><path d="M191.64,34.43l-5.57-7.92a6.22,6.22,0,0,0-1.87-2,1.43,1.43,0,0,0-1.58.18,2.77,2.77,0,0,0-.94,1.34l-2-.93A5,5,0,0,1,181.4,23a3.74,3.74,0,0,1,3.23-.64,3.82,3.82,0,0,1,1.61.86,10.6,10.6,0,0,1,1.69,2l5.57,7.92Z"/><path d="M195.07,39.48l-5.57-7.91a6.11,6.11,0,0,0-1.87-1.95,1.44,1.44,0,0,0-1.59.17,2.83,2.83,0,0,0-.94,1.34l-2-.94a5,5,0,0,1,1.74-2.13,3.78,3.78,0,0,1,3.22-.64,3.84,3.84,0,0,1,1.61.87,9.63,9.63,0,0,1,1.69,2l5.57,7.92Z"/><path d="M197.84,46.1l-4.66-8.49a6.17,6.17,0,0,0-1.64-2.15,1.4,1.4,0,0,0-1.59,0,2.78,2.78,0,0,0-1.08,1.22L187,35.5a5.16,5.16,0,0,1,2-1.92,3.79,3.79,0,0,1,3.28-.27,3.88,3.88,0,0,1,1.5,1,10.13,10.13,0,0,1,1.46,2.16L199.84,45Z"/><path d="M200.67,51.38,196,42.89a6.08,6.08,0,0,0-1.64-2.15,1.38,1.38,0,0,0-1.58,0A2.74,2.74,0,0,0,191.7,42l-1.9-1.16a5.12,5.12,0,0,1,2-1.92A3.77,3.77,0,0,1,195,38.6a3.87,3.87,0,0,1,1.51,1A9.82,9.82,0,0,1,198,41.79l4.65,8.49Z"/><path d="M202.14,55.55l-4.66-8.49a6.17,6.17,0,0,0-1.64-2.15,1.44,1.44,0,0,0-1.59,0,2.86,2.86,0,0,0-1.09,1.22L191.27,45a5,5,0,0,1,2-1.91,3.73,3.73,0,0,1,3.27-.28,3.92,3.92,0,0,1,1.51,1A10.4,10.4,0,0,1,199.47,46l4.65,8.5Z"/><path d="M158.94,2.21l9.76,8.46a13.92,13.92,0,0,1,2.4,2.51,5.3,5.3,0,0,1,.93,2.26,5,5,0,0,1-1.29,4.19,6.8,6.8,0,0,1-3.06,2l-1-2.8a3.76,3.76,0,0,0,1.91-1.07,1.9,1.9,0,0,0,.45-2.07A8.25,8.25,0,0,0,166.71,13L157,4.5Z"/><path d="M123,161.42l-5-5.77A8.46,8.46,0,0,1,116.8,154a3.16,3.16,0,0,1-.36-1.4,3,3,0,0,1,1.1-2.35,4,4,0,0,1,2-.93l.35,1.72a2.23,2.23,0,0,0-1.21.46,1.15,1.15,0,0,0-.44,1.18,5.1,5.1,0,0,0,1.14,1.81l5,5.78Z"/><path d="M127.84,160.54l-5.79-5a8,8,0,0,1-1.41-1.49,3.07,3.07,0,0,1-.56-1.34,3,3,0,0,1,.76-2.47,4,4,0,0,1,1.81-1.2l.58,1.65a2.22,2.22,0,0,0-1.12.64,1.12,1.12,0,0,0-.27,1.22,4.86,4.86,0,0,0,1.39,1.63l5.78,5Z"/><path d="M167.78,159.36l5.59-5.22a5,5,0,0,0,1.32-1.68,1.14,1.14,0,0,0-.31-1.22,2.31,2.31,0,0,0-1.15-.59l.52-1.67a3.9,3.9,0,0,1,1.85,1.12,3,3,0,0,1,.85,2.45,3.12,3.12,0,0,1-.51,1.36,8.1,8.1,0,0,1-1.37,1.55l-5.57,5.2Z"/><path d="M162.91,159.34l6-4.72a5.05,5.05,0,0,0,1.47-1.55,1.12,1.12,0,0,0-.21-1.24,2.29,2.29,0,0,0-1.09-.69l.66-1.63a4,4,0,0,1,1.74,1.29,3,3,0,0,1,.65,2.51,3.05,3.05,0,0,1-.62,1.31A7.72,7.72,0,0,1,170,156l-6,4.72Z"/><path d="M127.65,148.07l10.82-3.3a11.21,11.21,0,0,1,3-.61,4.45,4.45,0,0,1,4.62,3.26,5.93,5.93,0,0,1,.08,3.21l-2.53-.58a3.36,3.36,0,0,0,.09-1.91,1.67,1.67,0,0,0-1.33-1.3,7.2,7.2,0,0,0-3.11.46l-10.82,3.3Z"/><path d="M163.66,150.41l-10.82-3.3a7.46,7.46,0,0,0-3.13-.46,1.65,1.65,0,0,0-1.32,1.3,3.23,3.23,0,0,0,.08,1.92l-2.53.57a5.93,5.93,0,0,1,.08-3.21,4.39,4.39,0,0,1,2.51-2.9,4.51,4.51,0,0,1,2.11-.36,11.62,11.62,0,0,1,3,.61l10.82,3.3Z"/><path d="M150.52,2.59l10.75,7.17A13.45,13.45,0,0,1,164,11.94a5.15,5.15,0,0,1,1.21,2.13,5,5,0,0,1-.75,4.32,6.81,6.81,0,0,1-2.77,2.39l-1.33-2.65a3.86,3.86,0,0,0,1.76-1.3,1.93,1.93,0,0,0,.18-2.12,7.7,7.7,0,0,0-2.67-2.43L148.84,5.11Z"/><path d="M142.15,4.42,153.31,10a12.63,12.63,0,0,1,2.84,1.77,4.89,4.89,0,0,1,1.23,6.11A6.59,6.59,0,0,1,155,20.5l-1.59-2.38a3.63,3.63,0,0,0,1.52-1.46,1.84,1.84,0,0,0-.08-2.07,7.87,7.87,0,0,0-2.85-2L140.85,7.05Z"/><path d="M134.79,7.15l10.54,4.11A11.86,11.86,0,0,1,148,12.62a4.54,4.54,0,0,1,1.43,1.59,4.36,4.36,0,0,1,.17,3.84,5.78,5.78,0,0,1-1.92,2.58l-1.63-2a3.27,3.27,0,0,0,1.26-1.44,1.66,1.66,0,0,0-.25-1.84,6.89,6.89,0,0,0-2.73-1.56L133.83,9.64Z"/><path d="M127.2,11.57l11.21,1.55a12,12,0,0,1,3,.7A4.49,4.49,0,0,1,143.13,15a4.39,4.39,0,0,1,1.06,3.69,5.91,5.91,0,0,1-1.28,2.94l-2.07-1.58a3.36,3.36,0,0,0,.88-1.7,1.65,1.65,0,0,0-.66-1.74,7.33,7.33,0,0,0-3-.89L126.82,14.2Z"/><path d="M117.25,16,129,15.24a12,12,0,0,1,3.17.09,4.76,4.76,0,0,1,2.07.87,4.59,4.59,0,0,1,1.85,3.55,6.22,6.22,0,0,1-.7,3.28L133,21.83a3.34,3.34,0,0,0,.56-1.91,1.73,1.73,0,0,0-1-1.64,7.5,7.5,0,0,0-3.28-.29l-11.78.74Z"/><path d="M117.25,20l7.49-.47a7.59,7.59,0,0,1,2,.06,3,3,0,0,1,1.3.55,2.92,2.92,0,0,1,1.18,2.27,3.88,3.88,0,0,1-.44,2.06l-1.55-.76a2.25,2.25,0,0,0,.35-1.21,1.11,1.11,0,0,0-.66-1,4.84,4.84,0,0,0-2.07-.18l-7.49.47Z"/><path d="M113.47,22.46,121,22a7.6,7.6,0,0,1,2,.06,3.07,3.07,0,0,1,1.3.55,3,3,0,0,1,1.18,2.26,4,4,0,0,1-.44,2.07l-1.55-.76a2.28,2.28,0,0,0,.35-1.22,1.08,1.08,0,0,0-.66-1,4.7,4.7,0,0,0-2.07-.19l-7.49.48Z"/><path d="M108.6,26.45l7.33-1.6a7.55,7.55,0,0,1,2-.24A2.94,2.94,0,0,1,120.81,27a4,4,0,0,1-.13,2.13L119,28.64a2.19,2.19,0,0,0,.17-1.26,1.13,1.13,0,0,0-.81-.93,4.81,4.81,0,0,0-2.1.13L109,28.18Z"/><path d="M110.48,91.35l9.8-2.13A10.44,10.44,0,0,1,123,88.9a4,4,0,0,1,1.84.47,3.89,3.89,0,0,1,2,2.74,5.22,5.22,0,0,1-.16,2.85l-2.19-.7a3,3,0,0,0,.23-1.68,1.48,1.48,0,0,0-1.09-1.24,6.41,6.41,0,0,0-2.79.17L111,93.65Z"/><path d="M182.31,95.73l-8.88-2.66a6,6,0,0,0-2.59-.37,1.38,1.38,0,0,0-1.08,1.07,2.68,2.68,0,0,0,.08,1.56l-2.07.48a4.89,4.89,0,0,1,.06-2.63,3.57,3.57,0,0,1,2-2.39,3.67,3.67,0,0,1,1.73-.3A9.68,9.68,0,0,1,174,91l8.87,2.66Z"/><path d="M168,150.06l-4.34-.59.22-1.61,10.67,1.46-.24,1.82a8.45,8.45,0,0,1-.47,2,2.78,2.78,0,0,1-.87,1.13,3.11,3.11,0,0,1-2.39.6,2.92,2.92,0,0,1-2.19-1.3,3.93,3.93,0,0,1-.52-2.76Zm1.49.21-.08.6c-.21,1.48.26,2.29,1.4,2.45s1.75-.52,2-2.07l.07-.52Z"/><path d="M124.13,150.83a4,4,0,0,1-.51,2.77,3,3,0,0,1-2.19,1.3,3.09,3.09,0,0,1-2.4-.61,2.71,2.71,0,0,1-.86-1.12,8.2,8.2,0,0,1-.47-2l-.25-1.82,10.67-1.47.22,1.61-4.33.6Zm-4.95-.08.07.52c.21,1.52.86,2.21,2,2.07s1.57-1,1.4-2.45l-.08-.6Z"/><path d="M179,131.55l-11.08-6.91,3.22,12.67L168.78,139,164,119.23l17.3,10.61Z"/><path d="M185.18,139.91,174.1,133l3.23,12.65L175,147.37l-4.8-19.79,17.3,10.61Z"/><path d="M186,144.23,179.2,140l2,7.84-1.44,1-3-12.24,10.7,6.57Z"/><path d="M119.19,135.42l4.19-12.35-11.59,6-2.19-1.88L127.77,118l-6.38,19.27Z"/><path d="M111.67,144.34,115.86,132l-11.59,6-2.19-1.87,18.17-9.2-6.38,19.27Z"/><path d="M106.67,147.77l2.86-8.42-7.9,4.11-1.49-1.28,12.37-6.26L108.17,149Z"/><path d="M159.35,72.22l2.27.88-3.23,6.48-1.72-.72Zm4.53,0,2.26.88-3.23,6.48-1.71-.72Z"/><path d="M187.29,162l1.87,1.56-5.11,5.12-1.41-1.22Zm4.3,1.44,1.86,1.55-5.11,5.12-1.4-1.22Z"/><path d="M139.64,79.46l-1.72.71-3.22-6.48,2.26-.88Zm-4.53,0-1.71.71-3.23-6.48,2.26-.88Z"/><path d="M107.16,165.83l-1.61.94-4.06-6,2.13-1.18Zm-4.48.6-1.62.94-4.06-6,2.13-1.18Z"/><path d="M138.53,85.21l2.26.88-3.22,6.48-1.75-.7Z"/><path d="M160,92.06l-1.73.72L155,86.3l2.26-.88Z"/><path d="M132.51,64.3l-.13,3.75a42.36,42.36,0,0,0-8.5.2A36.85,36.85,0,0,0,120,69c-1.35.34-2.8.77-4.34,1.29s-3,1.08-4.25,1.65a39.65,39.65,0,0,0-3.56,1.81A42.13,42.13,0,0,0,101,78.82L98.58,76a41.43,41.43,0,0,1,15.78-9.31A40.78,40.78,0,0,1,132.51,64.3Z"/><path d="M170.93,150.8l-1.08,2.48a31.92,31.92,0,0,0-5.77-2.12,27.72,27.72,0,0,0-2.84-.51c-1-.14-2.07-.23-3.27-.28a32.75,32.75,0,0,0-3.29,0,28,28,0,0,0-2.88.27,30.46,30.46,0,0,0-5.92,1.59l-.86-2.58a33.08,33.08,0,0,1,25.91,1.15Z"/><path d="M146.49,149.59l-.84,2.41a29.81,29.81,0,0,0-5.58-1.56,27.1,27.1,0,0,0-2.7-.26,26.66,26.66,0,0,0-3.1,0c-1.14,0-2.15.12-3.11.24s-1.79.28-2.67.48a29.1,29.1,0,0,0-5.43,2l-1-2.34a28.15,28.15,0,0,1,12.1-3,28.48,28.48,0,0,1,12.34,2Z"/><path d="M111.3,100.66l.76-1.55a19.48,19.48,0,0,0,3.58,1.53,17.71,17.71,0,0,0,1.78.42c.62.12,1.3.21,2.06.29s1.45.11,2.07.12a16,16,0,0,0,1.83-.09,18.82,18.82,0,0,0,3.79-.81l.47,1.65a20.88,20.88,0,0,1-16.34-1.56Z"/><path d="M175.45,103.77a19,19,0,0,1-8.31-1l.49-1.64a19.41,19.41,0,0,0,3.78.88,17.68,17.68,0,0,0,1.82.1,16.61,16.61,0,0,0,2.07-.08c.74-.09,1.43-.14,2.07-.25a16.73,16.73,0,0,0,1.78-.4,19.34,19.34,0,0,0,3.62-1.47l.74,1.55a18.85,18.85,0,0,1-8.06,2.35Z"/><path d="M149.54,245.54a19,19,0,0,1-8.31-1l.49-1.64a19.58,19.58,0,0,0,3.78.88,17.68,17.68,0,0,0,1.82.1,16.68,16.68,0,0,0,2.07-.08c.74-.08,1.43-.14,2.07-.25a15.75,15.75,0,0,0,1.78-.4,19.62,19.62,0,0,0,3.62-1.47l.74,1.55a18.85,18.85,0,0,1-8.06,2.35Z"/><path d="M149.23,242.21a19,19,0,0,1-8.31-1l.48-1.64a19.75,19.75,0,0,0,3.78.88c.61.06,1.22.1,1.83.1a18.79,18.79,0,0,0,2.07-.08c.74-.09,1.43-.14,2.07-.25s1.19-.24,1.78-.4a19.62,19.62,0,0,0,3.62-1.47l.74,1.55a18.89,18.89,0,0,1-8.06,2.35Z"/><path d="M143.33,205.6a23.33,23.33,0,0,1-10.16-1.86l.72-2a23.73,23.73,0,0,0,4.59,1.36,21.8,21.8,0,0,0,2.24.27c.78.06,1.63.07,2.59.05s1.77-.07,2.55-.15a21.12,21.12,0,0,0,2.23-.36,23.52,23.52,0,0,0,4.53-1.55l.8,2a23.33,23.33,0,0,1-10.09,2.27Z"/><path d="M144.22,210.09a18.77,18.77,0,0,1-8.23-1.55l.6-1.61a18.45,18.45,0,0,0,3.71,1.12c.6.11,1.2.18,1.81.23s1.33.07,2.07.05,1.44-.05,2.07-.11,1.24-.16,1.8-.28a19.74,19.74,0,0,0,3.69-1.23l.64,1.58a18.86,18.86,0,0,1-8.16,1.8Z"/><path d="M144.15,166a27.69,27.69,0,0,1-11.9-3.1l1-2.29a27.38,27.38,0,0,0,5.33,2c.83.21,1.71.38,2.63.52s1.94.23,3,.29,2.11.06,3,0a26.46,26.46,0,0,0,2.67-.23,29.11,29.11,0,0,0,5.52-1.44l.78,2.39A27.94,27.94,0,0,1,144.15,166Z"/><path d="M144.27,175.09a33.45,33.45,0,0,1-14.55-3l1.1-2.83a34,34,0,0,0,6.55,2.11,32,32,0,0,0,3.22.46c1.12.1,2.35.16,3.69.17s2.55-.05,3.68-.14,2.15-.24,3.21-.44a35.26,35.26,0,0,0,6.59-2.07l1.08,2.84a33,33,0,0,1-14.57,2.93Z"/><path d="M144.2,178.62a24.14,24.14,0,0,1-10.45-2.17l.8-2a24.2,24.2,0,0,0,4.71,1.52c.73.14,1.5.25,2.3.33s1.69.11,2.66.11,1.83,0,2.64-.1a22.85,22.85,0,0,0,2.31-.31,25.46,25.46,0,0,0,4.73-1.49l.77,2.07a24,24,0,0,1-10.47,2.08Z"/><path d="M162.41,168.3a13.44,13.44,0,0,1-5.48,2.34l-.28-1.19a13.55,13.55,0,0,0,2.63-.81,10.6,10.6,0,0,0,1.17-.58c.39-.22.8-.49,1.24-.79a13.92,13.92,0,0,0,1.18-.89,9.91,9.91,0,0,0,1-.87,14.87,14.87,0,0,0,1.69-2.19l1,.69a13.37,13.37,0,0,1-4.11,4.29Z"/><path d="M123.64,164.13l1-.63a14.17,14.17,0,0,0,1.55,2.29c.29.33.59.64.9.94s.71.62,1.13,1,.82.62,1.2.86a9.6,9.6,0,0,0,1.12.65,13.15,13.15,0,0,0,2.58,1l-.35,1.16a14.72,14.72,0,0,1-9.16-7.19Z"/><path d="M135.2,91.38l-1.3,3.2a38.86,38.86,0,0,0-7.42-2.52,36.38,36.38,0,0,0-3.62-.58q-1.9-.2-4.17-.24c-1.51,0-2.91,0-4.19.09a34.61,34.61,0,0,0-3.65.44A37.52,37.52,0,0,0,103.36,94l-1.18-3.25a37.91,37.91,0,0,1,16.55-3.06,38.2,38.2,0,0,1,16.47,3.69Z"/><path d="M164,130.14l-1.32,3.21a39.78,39.78,0,0,0-7.42-2.51c-1.2-.25-2.4-.45-3.62-.58S149,130,147.52,130s-2.91,0-4.2.09-2.44.24-3.65.45a37.53,37.53,0,0,0-7.47,2.23L131,129.53a38,38,0,0,1,16.58-3.06A38.14,38.14,0,0,1,164,130.14Z"/><path d="M147.59,139A37.93,37.93,0,0,1,131,135.94l1.18-3.24a37.52,37.52,0,0,0,7.49,2.23,34,34,0,0,0,3.65.44c1.28.09,2.67.12,4.19.09s2.91-.11,4.17-.25a34.5,34.5,0,0,0,3.62-.58,40.39,40.39,0,0,0,7.41-2.5l1.3,3.19A37.7,37.7,0,0,1,147.59,139Z"/><path d="M167.89,3.06,166.6,7.12a48.94,48.94,0,0,0-9.37-2.37,43,43,0,0,0-4.54-.36c-1.58,0-3.3,0-5.17.1s-3.59.29-5.17.52a43.94,43.94,0,0,0-4.46.9,46.77,46.77,0,0,0-9,3.47L127.16,5.5A47.42,47.42,0,0,1,147.27.12,46.51,46.51,0,0,1,167.89,3.06Z"/><path d="M130.65,4.89l.71,4.2A49,49,0,0,0,122,11.27a45.34,45.34,0,0,0-4.2,1.75q-2.15,1-4.53,2.45t-4.35,2.82a43.71,43.71,0,0,0-3.55,2.84,47.3,47.3,0,0,0-6.42,7.21L95.56,25.7A47.1,47.1,0,0,1,111,11.7,46.81,46.81,0,0,1,130.65,4.89Z"/><path d="M124.23,16.61l.74,3.45a40.55,40.55,0,0,0-7.72,2.14c-1.16.48-2.29,1-3.4,1.6s-2.37,1.34-3.67,2.18-2.45,1.68-3.48,2.49-1.93,1.6-2.84,2.47a39.45,39.45,0,0,0-5,6.21L96,35.08A39.24,39.24,0,0,1,108.2,23a38.41,38.41,0,0,1,16-6.34Z"/><path d="M208.88,41.15l-3.24,1.43A39.53,39.53,0,0,0,202,35.47a34.6,34.6,0,0,0-2.26-3q-1.26-1.51-2.88-3.15t-3.15-2.9a34.72,34.72,0,0,0-3-2.27,38.77,38.77,0,0,0-7.09-3.68L185,17.25a38.71,38.71,0,0,1,14.37,9.52,39,39,0,0,1,9.49,14.38Z"/><path d="M214,73.43l-3.45-.73a40.61,40.61,0,0,0,1.17-7.91,36.3,36.3,0,0,0-.08-3.76c-.1-1.3-.27-2.71-.52-4.24s-.53-2.91-.85-4.19A36.44,36.44,0,0,0,209.12,49a38.85,38.85,0,0,0-3.62-7.13l3.05-1.78a38.94,38.94,0,0,1,6.11,16.11A39,39,0,0,1,214,73.43Z"/><path d="M207.31,77.31l-3.53,0a40.13,40.13,0,0,0-.56-8,36.11,36.11,0,0,0-.89-3.66c-.37-1.25-.84-2.58-1.41-4s-1.15-2.75-1.74-3.92a33,33,0,0,0-1.85-3.27,38.94,38.94,0,0,0-5.05-6.18l2.58-2.39a38.82,38.82,0,0,1,9.43,14.42,38.86,38.86,0,0,1,3,17Z"/><path d="M84.35,139.71l3.52-.12a40.16,40.16,0,0,0,.75,8c.26,1.22.59,2.43,1,3.62s.91,2.58,1.51,4,1.21,2.71,1.84,3.88,1.23,2.18,1.93,3.22a39,39,0,0,0,5.2,6l-2.53,2.46a38.79,38.79,0,0,1-9.77-14.19,38.89,38.89,0,0,1-3.42-16.88Z"/><path d="M179,186l-21.09,13.52-2-3.19L177,182.79Z"/><path d="M190.45,175.28l-18.88,16.46-2.49-2.85L188,172.43Z"/><path d="M201.73,162.25A38.9,38.9,0,0,1,190,174.87l-2.15-2.79a39.37,39.37,0,0,0,6-5.21,35.34,35.34,0,0,0,2.39-2.92c.77-1,1.56-2.22,2.37-3.56s1.5-2.58,2.07-3.73a36.24,36.24,0,0,0,1.49-3.45,40,40,0,0,0,1.9-7.76l3.47.63A38.63,38.63,0,0,1,201.73,162.25Z"/><path d="M123.29,196.35l1.55-3.17a40.12,40.12,0,0,0,7.36,3.06c1.21.34,2.44.62,3.67.84s2.7.4,4.23.52,3,.19,4.28.19a33.71,33.71,0,0,0,3.76-.21,38.7,38.7,0,0,0,7.81-1.75l1,3.39a38.78,38.78,0,0,1-17.11,2,38.75,38.75,0,0,1-16.53-4.87Z"/><path d="M197.51,76.09l-2.47,3A43.69,43.69,0,0,0,187.83,74a50.38,50.38,0,0,0-16.92-5.52,45.64,45.64,0,0,0-8.9-.08l-.2-3.92a43.32,43.32,0,0,1,19,2.19A43.13,43.13,0,0,1,197.51,76.09Z"/><path d="M191.16,93.2l-1.23,2.85a34,34,0,0,0-6.62-2.4,34.53,34.53,0,0,0-20.91,1.28l-1-2.94a37.91,37.91,0,0,1,29.76,1.21Z"/><path d="M103.84,92.43h13v2.16h-13Z"/><path d="M176.19,93.51h12.95v2.16H176.19Z"/><path d="M155,130.09a3.22,3.22,0,0,1,1.94-.41,2.29,2.29,0,0,1,1.56,1,2.49,2.49,0,0,1-2.41,3.88,2.27,2.27,0,0,1-1.5-.9,2.05,2.05,0,0,1-.43-1.65.33.33,0,0,1,0-.15,1,1,0,0,0,.07-.24L151.57,133l-.47-.9Zm2.87,3.16a1.35,1.35,0,0,0,.56-.9,1.39,1.39,0,0,0-1.12-1.6h0a1.31,1.31,0,0,0-1,.24,1.39,1.39,0,0,0,.6,2.51,1.33,1.33,0,0,0,1-.25Z"/><path d="M152.15,131.05a3.16,3.16,0,0,1,1.95-.41,2.27,2.27,0,0,1,1.55,1,2.48,2.48,0,0,1-2.41,3.88,2.29,2.29,0,0,1-1.5-.91,2.06,2.06,0,0,1-.43-1.64l0-.15a1.53,1.53,0,0,1,.07-.24l-2.66,1.35-.47-.9Zm2.35,3.16a1.39,1.39,0,1,0-1.53-2.33l-.09.07a1.34,1.34,0,0,0-.56.91,1.39,1.39,0,0,0,1.15,1.6h0A1.33,1.33,0,0,0,154.5,134.21Z"/><path d="M149.68,131.05a3.15,3.15,0,0,1,1.94-.41,2.25,2.25,0,0,1,1.55,1,2.48,2.48,0,0,1-2.4,3.88,2.31,2.31,0,0,1-1.51-.91,2.05,2.05,0,0,1-.42-1.64.4.4,0,0,1,0-.15.9.9,0,0,1,.07-.24l-2.65,1.35-.48-.9Zm2.35,3.16a1.39,1.39,0,1,0-1.62-2.27,1.42,1.42,0,0,0-.56.92,1.37,1.37,0,0,0,1.14,1.59h0A1.33,1.33,0,0,0,152,134.21Z"/><path d="M143.34,131.7l-.44,1L140,131.43c0,.1.07.18.09.25s0,.12,0,.17a2.26,2.26,0,0,1-.34,1.8,2.46,2.46,0,0,1-1.55,1.08,2.68,2.68,0,0,1-2.88-4,2.44,2.44,0,0,1,1.59-1.19,3.45,3.45,0,0,1,2.12.3Zm-5.48,1.92a1.51,1.51,0,0,0,.45-2.75,1.46,1.46,0,0,0-1.13-.18,1.44,1.44,0,0,0-.93.66,1.46,1.46,0,0,0-.18,1.15,1.49,1.49,0,0,0,1.79,1.12Z"/><path d="M146.14,132.62l-.44,1-3-1.26c0,.1.07.18.09.25a1.09,1.09,0,0,1,0,.17,2.22,2.22,0,0,1-.34,1.8,2.46,2.46,0,0,1-1.55,1.08,2.67,2.67,0,0,1-2.88-4,2.48,2.48,0,0,1,1.59-1.2,3.44,3.44,0,0,1,2.12.3Zm-5.49,1.93a1.5,1.5,0,1,0-1.12-.18A1.5,1.5,0,0,0,140.65,134.55Z"/><path d="M149.09,132.62l-.44,1-2.94-1.26.08.25a1.09,1.09,0,0,1,.05.17,2.22,2.22,0,0,1-.34,1.8,2.46,2.46,0,0,1-1.55,1.08,2.67,2.67,0,0,1-2.87-4,2.42,2.42,0,0,1,1.59-1.2,3.45,3.45,0,0,1,2.12.3Zm-5.48,1.93a1.51,1.51,0,1,0-1.8-1.16v0A1.5,1.5,0,0,0,143.61,134.55Z"/><path d="M151.6,132.9l-.44,1-3-1.25.1.25a.75.75,0,0,0,0,.16,2.25,2.25,0,0,1-.33,1.8,2.49,2.49,0,0,1-1.55,1.08,2.68,2.68,0,0,1-2.88-4,2.49,2.49,0,0,1,1.59-1.19,3.45,3.45,0,0,1,2.12.3Zm-5.49,1.9a1.5,1.5,0,0,0,.94-.67,1.44,1.44,0,0,0,.19-1.14,1.5,1.5,0,0,0-2.74-.45,1.52,1.52,0,0,0,.49,2.07A1.47,1.47,0,0,0,146.11,134.8Z"/><path d="M105.82,266.27,89.73,288.89l-9.91,1.55,18.76-25.75L72,241.25l10-1.55,21.12,19.13,1.3-1.76-3.2-20.38,7.43-1.16,7.66,49.21-7.43,1.15Z"/><path d="M125.87,303.56l3.34,28.29-6.47,8-3.45-32.54-36.37.47,6.5-8h29.25l-.23-2.23L102,284.22l4.85-6,39.72,32.15-4.85,6Z"/><path d="M114.71,315.41,118,343.62l-6.46,8-3.44-32.43-36.26.47,6.47-8h29.17l-.23-2.23L90.88,296.14l4.84-6,39.61,32.06-4.83,6Z"/><path d="M101,297.88l-16.1,22.59L75,322l18.77-25.74L67.17,272.84l9.94-1.55,21.13,19.14,1.29-1.77-3.17-20.37,7.42-1.15,7.67,49.2L104,317.5Z"/><path d="M90.72,286l-16.1,22.61-9.91,1.55,18.78-25.74L56.92,261l9.94-1.56L88,278.58l1.29-1.77-3.17-20.36,7.43-1.14,7.66,49.2-7.42,1.16Z"/><path d="M75.21,285.07l-16.1,22.61-9.91,1.56L68,283.49,41.41,260.06l9.94-1.56,21.13,19.14,1.29-1.77L70.6,255.51,78,254.36l7.66,49.2-7.43,1.16Z"/><path d="M75.21,301.34,59.11,324,49.2,325.5,68,299.76,41.41,276.32l9.94-1.56L72.48,293.9l1.29-1.77L70.6,271.77,78,270.61l7.66,49.21L78.26,321Z"/><path d="M61.4,298.67,45.31,321.29l-9.91,1.55L54.18,297.1,27.6,273.65l9.94-1.55,21.13,19.13L60,289.46,56.79,269.1l7.43-1.16,7.66,49.2-7.43,1.16Z"/><path d="M40,300.18,23.91,322.8,14,324.35l18.77-25.74L6.2,275.16l10-1.55,21.12,19.13L38.59,291l-3.18-20.36,7.43-1.16,7.64,49.18-7.42,1.16Z"/><path d="M44.13,260.53,28,283.14l-9.91,1.55L36.9,258.93,10.33,235.5l10-1.55,21.13,19.14,1.29-1.77L39.52,231,47,229.8,54.62,279l-7.43,1.15Z"/><path d="M33.8,238.83,17.7,261.44,7.79,263l18.77-25.74L0,213.8l9.94-1.55,21.13,19.14,1.31-1.77-3.19-20.34,7.42-1.16,7.67,49.18-7.43,1.16Z"/><path d="M49.06,239.62,33,262.24l-9.91,1.55,18.78-25.74L15.26,214.6l9.94-1.55,21.13,19.13,1.29-1.77-3.17-20.36,7.43-1.16,7.66,49.2-7.43,1.16Z"/><path d="M41.46,215l21.48,17.58.87,10L39.39,222.08,14.21,247l-.88-10,20.52-19.79-1.67-1.41-20.54,1.79L11,210.07l49.61-4.34.65,7.49Z"/><path d="M263.33,225.31l17.1,21.86-1.34,9.93-19.34-25.34-30,18.8,1.34-10,24.36-14.82L254.09,224l-20.43-2.75,1-7.45L284,220.48l-1,7.45Z"/><path d="M240.74,246.13l21.63-17.39,10,1.22-25.06,19.66,19.2,29.78-10-1.21L241.33,254l-1.72,1.35-2.48,20.46-7.45-.88,6-49.43,7.46.9Z"/><path d="M251,241.54l21.63-17.39,10,1.21L257.51,245l19.19,29.78-10-1.22-15.14-24.15-1.72,1.35-2.48,20.46-7.46-.9,6-49.44,7.46.91Z"/><path d="M257.25,277.52l21.63-17.4,10,1.21L263.77,281,283,310.77l-10-1.21L257.85,285.4l-1.73,1.35-2.48,20.46-7.46-.9,6-49.43,7.46.91Z"/><path d="M236.3,280l21.63-17.39,10,1.2-25.07,19.66L262,313.23,252,312,236.9,287.89l-1.72,1.35L232.7,309.7l-7.46-.9,6-49.44,7.45.91Z"/><path d="M223.42,306.91l21.64-17.38,9.95,1.2L230,310.38l19.2,29.78-10-1.21L224,314.8l-1.73,1.35-2.48,20.46-7.45-.89,6-49.43,7.46.9Z"/><path d="M212.21,317.49l21.63-17.39,10,1.2L218.74,321l19.19,29.78-10-1.22-15.14-24.15-1.72,1.35-2.48,20.46-7.46-.91,6-49.43,7.46.9Z"/><path d="M201.4,320.43,223,303l10,1.21L207.93,323.9l19.19,29.78-10-1.21L202,328.33l-1.72,1.35-2.48,20.46-7.46-.9,6-49.45,7.46.9Z"/><path d="M174.1,307.8l26.85,7,5,8.71-30.73-8.38-12.45,33.17-5-8.74L168.1,313l-2.11-.58-17.9,10.21-3.73-6.52,43.25-24.69,3.72,6.53Z"/><path d="M151.17,316.56l20.47,18.74.32,10-23.24-21.79L122.19,347l-.33-10,21.58-18.62-1.6-1.5-20.6.65L121,310l49.78-1.55L171,316Z"/><path d="M189,313.41l26.86,7,5,8.71-30.73-8.38-12.45,33.18-5-8.74L183,318.61l-2.11-.58L163,328.23l-3.72-6.52L202.54,297l3.73,6.52Z"/><path d="M244.75,290.54l21.64-17.39,9.95,1.21L251.28,294l19.2,29.78-10-1.19-15.14-24.16-1.7,1.35-2.48,20.46-7.46-.91,6-49.43,7.46.91Z"/></g></g></svg>