<?xml version="1.0" encoding="utf-8"?>
<!-- Generator: Adobe Illustrator 23.0.2, SVG Export Plug-In . SVG Version: 6.00 Build 0)  -->
<svg version="1.1" id="Layer_1" xmlns="http://www.w3.org/2000/svg" xmlns:xlink="http://www.w3.org/1999/xlink" x="0px" y="0px"
	 viewBox="0 0 33 33" style="enable-background:new 0 0 33 33;" xml:space="preserve">
<style type="text/css">
	.st0{fill-rule:evenodd;clip-rule:evenodd;}
	.st1{fill:#FFBF4F;stroke:#FFFFFF;stroke-width:2;stroke-miterlimit:10;}
	.st2{fill:#FFFFFF;}
	.st3{fill-rule:evenodd;clip-rule:evenodd;fill:#FFFFFF;}
</style>
<title>Asset 1</title>
<path class="st0" d="M17.8,14.7L17.8,14.7L17.8,14.7z"/>
<rect x="1" y="1" class="st1" width="31" height="31"/>
<rect x="6.1" y="13.2" class="st2" width="4.6" height="13.7"/>
<path class="st3" d="M8.4,11.2L8.4,11.2C7.1,11.3,5.9,10.3,5.8,9S6.7,6.5,8,6.4c0.1,0,0.3,0,0.4,0c1.3-0.1,2.5,0.8,2.6,2.2
	c0.1,1.3-0.8,2.5-2.2,2.6C8.7,11.2,8.6,11.2,8.4,11.2L8.4,11.2z"/>
<path class="st3" d="M27.4,26.9h-4.6v-7.4c0-1.9-0.7-3.1-2.4-3.1c-1.1,0-2.1,0.7-2.5,1.7c-0.1,0.4-0.2,0.7-0.2,1.1v7.7h-4.7
	c0,0,0.1-12.4,0-13.7h4.7v1.9c0.9-1.5,2.5-2.3,4.2-2.3c3.1,0,5.4,2,5.4,6.2L27.4,26.9z"/>
</svg>
